<svg version="1.1" xmlns="http://www.w3.org/2000/svg" xmlns:xlink="http://www.w3.org/1999/xlink" width="24px" height="24px" viewBox="0,0,256,256"><g fill-opacity="0" fill="#000000" fill-rule="nonzero" stroke="none" stroke-width="1" stroke-linecap="butt" stroke-linejoin="miter" stroke-miterlimit="10" stroke-dasharray="" stroke-dashoffset="0" font-family="none" font-weight="none" font-size="none" text-anchor="none" style="mix-blend-mode: normal"><path d="M0,256v-256h256v256z" id="bgRectangle"></path></g><g fill="#fbfffe" fill-rule="nonzero" stroke="none" stroke-width="1" stroke-linecap="butt" stroke-linejoin="miter" stroke-miterlimit="10" stroke-dasharray="" stroke-dashoffset="0" font-family="none" font-weight="none" font-size="none" text-anchor="none" style="mix-blend-mode: normal"><g transform="scale(10.66667,10.66667)"><path d="M19,3h-14c-1.103,0 -2,0.897 -2,2v14c0,1.103 0.897,2 2,2h14c1.103,0 2,-0.897 2,-2v-14c0,-1.103 -0.897,-2 -2,-2zM16,15.51c0,0.387 -0.466,0.621 -0.82,0.412l-5.18,-3.063v2.141c0,0.552 -0.448,1 -1,1c-0.552,0 -1,-0.448 -1,-1v-6c0,-0.552 0.448,-1 1,-1c0.552,0 1,0.448 1,1v2.141l5.18,-3.063c0.354,-0.209 0.82,0.025 0.82,0.412z"></path></g></g></svg>