<svg version="1.1" xmlns="http://www.w3.org/2000/svg" xmlns:xlink="http://www.w3.org/1999/xlink" width="24px" height="24px" viewBox="0,0,256,256"><g fill="#fbfffe" fill-rule="nonzero" stroke="none" stroke-width="1" stroke-linecap="butt" stroke-linejoin="miter" stroke-miterlimit="10" stroke-dasharray="" stroke-dashoffset="0" font-family="none" font-weight="none" font-size="none" text-anchor="none" style="mix-blend-mode: normal"><g transform="scale(10.66667,10.66667)"><path d="M8,3.75c-2.13417,-0.00033 -4.00655,1.42274 -4.57756,3.47911c-0.57101,2.05637 0.29956,4.2411 2.12835,5.3412c-2.58799,1.01013 -4.29414,3.50116 -4.30078,6.2793v1.40039c0,0.41421 0.33579,0.75 0.75,0.75h12c0.41421,0 0.75,-0.33579 0.75,-0.75v-1.40039c-0.00375,-2.78147 -1.71132,-5.27657 -4.30273,-6.28711c1.82054,-1.10302 2.68498,-3.28251 2.11541,-5.33352c-0.56957,-2.051 -2.43407,-3.47266 -4.56268,-3.47898zM18,8.5c-1.58017,0.00338 -2.98866,0.99693 -3.52196,2.48439c-0.5333,1.48746 -0.07695,3.14961 1.1411,4.15623c-0.21917,0.11899 -0.42369,0.2632 -0.60937,0.42969c0.49016,1.02354 0.74318,2.14445 0.74023,3.2793v2.15039h6.25c0.41308,-0.00273 0.74727,-0.33692 0.75,-0.75v-1c0.00064,-1.69352 -0.90155,-3.25895 -2.36719,-4.10742c1.21991,-1.00649 1.67725,-2.67013 1.14325,-4.15877c-0.534,-1.48864 -1.94454,-2.48224 -3.52606,-2.48381z"></path></g></g></svg>