<svg xmlns="http://www.w3.org/2000/svg" xmlns:xlink="http://www.w3.org/1999/xlink" viewBox="0,0,256,256" width="30px" height="30px" fill-rule="nonzero"><g fill="#fbfffe" fill-rule="nonzero" stroke="none" stroke-width="1" stroke-linecap="butt" stroke-linejoin="miter" stroke-miterlimit="10" stroke-dasharray="" stroke-dashoffset="0" font-family="none" font-weight="none" font-size="none" text-anchor="none" style="mix-blend-mode: normal"><g transform="scale(10.66667,10.66667)"><path d="M11.56641,2.00977c-5.31372,0.22772 -9.56641,4.62211 -9.56641,9.99023c0,2.36 0.82231,4.53114 2.19531,6.24414c0.37,0.461 1.06147,0.49908 1.48047,0.08008l0.01367,-0.01367c0.355,-0.355 0.38627,-0.91759 0.07227,-1.30859c-1.401,-1.744 -2.08737,-4.08517 -1.60937,-6.57617c0.6,-3.129 3.11423,-5.65653 6.24023,-6.26953c5.112,-1.001 9.60742,2.90675 9.60742,7.84375c0,1.895 -0.66258,3.63777 -1.76758,5.00977c-0.313,0.388 -0.27292,0.95073 0.08008,1.30273l0.01172,0.01172c0.416,0.416 1.10856,0.38673 1.47656,-0.07227c1.706,-2.124 2.56274,-4.95747 2.05273,-7.98047c-0.684,-4.057 -3.91008,-7.3467 -7.95508,-8.0957c-0.79312,-0.14687 -1.57293,-0.19855 -2.33203,-0.16602zM15.2832,7.66797c-0.24662,-0.00725 -0.49536,0.07595 -0.69336,0.25195l-3.79687,3.37695c-0.43,0.382 -0.44997,1.04613 -0.04297,1.45313l0.5,0.5c0.407,0.407 1.07208,0.38703 1.45508,-0.04297l3.375,-3.79492c0.352,-0.396 0.33494,-0.99905 -0.03906,-1.37305l-0.08008,-0.07812c-0.1875,-0.187 -0.43111,-0.28572 -0.67774,-0.29297z"></path></g></g></svg>