<svg version="1.1" xmlns="http://www.w3.org/2000/svg" xmlns:xlink="http://www.w3.org/1999/xlink" width="30" height="30" viewBox="0,0,256,256"><g fill-opacity="0" fill="#ffffff" fill-rule="nonzero" stroke="none" stroke-width="1" stroke-linecap="butt" stroke-linejoin="miter" stroke-miterlimit="10" stroke-dasharray="" stroke-dashoffset="0" font-family="none" font-weight="none" font-size="none" text-anchor="none" style="mix-blend-mode: normal"><path d="M0,256v-256h256v256z" id="bgRectangle"></path></g><g fill="#fbfffe" fill-rule="nonzero" stroke="none" stroke-width="1" stroke-linecap="butt" stroke-linejoin="miter" stroke-miterlimit="10" stroke-dasharray="" stroke-dashoffset="0" font-family="none" font-weight="none" font-size="none" text-anchor="none" style="mix-blend-mode: normal"><g transform="scale(8.53333,8.53333)"><path d="M6,26h18c1.105,0 2,-0.895 2,-2v-18c0,-1.105 -0.895,-2 -2,-2h-18c-1.105,0 -2,0.895 -2,2v18c0,1.105 0.895,2 2,2zM18,11c0,-0.552 0.448,-1 1,-1c0.552,0 1,0.448 1,1v8c0,0.552 -0.448,1 -1,1c-0.552,0 -1,-0.448 -1,-1zM10,10.507c0,-0.452 0.32,-0.637 0.712,-0.411l5.964,4.354c0.42,0.331 0.433,0.752 -0.015,1.11l-5.949,4.343c-0.392,0.226 -0.712,0.041 -0.712,-0.411z"></path></g></g></svg> 