<svg version="1.1" xmlns="http://www.w3.org/2000/svg" xmlns:xlink="http://www.w3.org/1999/xlink" width="48px" height="48px" viewBox="0,0,256,256"><g fill="#fbfffe" fill-rule="nonzero" stroke="none" stroke-width="1" stroke-linecap="butt" stroke-linejoin="miter" stroke-miterlimit="10" stroke-dasharray="" stroke-dashoffset="0" font-family="none" font-weight="none" font-size="none" text-anchor="none" style="mix-blend-mode: normal"><g transform="scale(5.33333,5.33333)"><path d="M44,24c0,11.028 -8.972,20 -20,20c-3.183,0 -6.338,-0.77 -9.165,-2.229l-7.661,2.139c-0.221,0.06 -0.446,0.09 -0.67,0.09c-0.655,0 -1.296,-0.258 -1.771,-0.732c-0.637,-0.638 -0.882,-1.572 -0.64,-2.439l2.139,-7.657c-1.462,-2.83 -2.232,-5.987 -2.232,-9.172c0,-11.029 8.972,-20 20,-20c11.028,0 20,8.971 20,20zM34,20.499c0,-0.828 -0.671,-1.5 -1.5,-1.5h-17c-0.829,0 -1.5,0.672 -1.5,1.5c0,0.828 0.671,1.5 1.5,1.5h17c0.829,0 1.5,-0.672 1.5,-1.5zM30,27.499c0,-0.828 -0.671,-1.5 -1.5,-1.5h-13c-0.829,0 -1.5,0.672 -1.5,1.5c0,0.828 0.671,1.5 1.5,1.5h13c0.829,0 1.5,-0.672 1.5,-1.5z"></path></g></g></svg>